Coordinates
version=1
nRows=19
nColumns=36
inDegrees=yes

Units are S.I. units (second, meters, Newtons, ...)
If the header above contains a line with 'inDegrees', this indicates whether rotational values are in degrees (yes) or radians (no).

endheader
time	pelvis_tilt	pelvis_list	pelvis_rotation	pelvis_tx	pelvis_ty	pelvis_tz	hip_flexion_r	hip_adduction_r	hip_rotation_r	knee_angle_r	knee_angle_r_beta	ankle_angle_r	subtalar_angle_r	mtp_angle_r	hip_flexion_l	hip_adduction_l	hip_rotation_l	knee_angle_l	knee_angle_l_beta	ankle_angle_l	subtalar_angle_l	mtp_angle_l	lumbar_extension	lumbar_bending	lumbar_rotation	arm_flex_r	arm_add_r	arm_rot_r	elbow_flex_r	pro_sup_r	arm_flex_l	arm_add_l	arm_rot_l	elbow_flex_l	pro_sup_l
      1.20000000	    -24.92306706	     -1.88199024	     -1.19285268	     -0.70144296	      1.11297103	     -0.06705302	     36.44057955	     -2.58070538	     -6.99295724	     52.42955148	      0.91506830	     35.07411469	      4.81801245	     -7.49999987	     38.42547615	    -12.72198744	     -5.03310876	     55.24424290	      0.96419393	     29.47345991	      4.17165297	     -7.49999987	     -9.57908271	      0.30289975	      1.54611267	     81.73013738	     -6.90440521	     20.21752696	     53.94481549	     73.67639123	     84.98660001	    -15.64643355	     32.68076244	     77.38705339	     53.40224471
      1.20416670	    -24.28058772	     -1.72945721	     -0.80354307	     -0.70056539	      1.11839482	     -0.06733190	     34.52466234	     -3.18958786	     -7.44403310	     50.95800298	      0.88938493	     34.75402361	      5.19999102	     -7.49999987	     36.82898310	    -12.05136944	     -4.96477025	     53.75735967	      0.93824292	     29.13909463	      4.02316712	     -7.49999987	     -9.61015817	      0.34278389	      1.44590343	     82.94901039	     -8.50890406	     21.47863570	     53.61906328	     74.34557660	     85.78548255	    -15.86236472	     32.13627631	     77.29048418	     53.08576198
      1.20833330	    -23.92602565	     -1.46970756	     -0.39374777	     -0.69490411	      1.11917734	     -0.07186645	     33.51831098	     -3.85223323	     -7.53086040	     50.65628720	      0.88411900	     34.86835146	      5.18640956	     -7.49999987	     35.61207415	    -11.12873155	     -4.69315076	     52.64939155	      0.91890523	     28.93752685	      3.74631771	     -7.49999987	     -9.04087482	      0.45798121	      1.34218354	     84.01285257	    -10.34474239	     23.17495542	     53.50874332	     74.56214064	     86.62745884	    -16.38761773	     31.89170350	     77.48849419	     53.06720335
      1.21250000	    -23.75718400	     -1.45803719	      0.23239048	     -0.68845943	      1.12354241	     -0.06850110	     32.15948405	     -4.11807867	     -8.23362323	     49.27075728	      0.85993694	     34.79667205	      5.18896073	     -7.49999987	     34.55367604	    -10.40140243	     -3.73500500	     51.31215083	      0.89556598	     28.45164048	      3.04162793	     -7.49999987	     -8.19117353	      0.92475218	      1.63541750	     84.89823705	    -11.45586186	     23.72087113	     53.86755884	     74.90114981	     86.56551274	    -16.54108102	     31.51377872	     77.88959179	     52.92469635
      1.21666670	    -23.31655756	     -1.52330521	      1.10433211	     -0.68246289	      1.12765926	     -0.07313380	     30.58502730	     -4.58212591	     -9.25741363	     48.34240137	      0.84373407	     34.73750387	      5.36534882	     -7.49999987	     33.55925730	     -9.78719832	     -2.89864416	     50.80902934	      0.88678485	     28.04044204	      2.73340694	     -7.49999987	     -7.51475603	      1.89953987	      2.57344729	     85.71387113	    -12.91527809	     24.37622429	     53.92413361	     75.14795893	     85.97646220	    -15.41165021	     31.01870507	     77.14759688	     52.81553189
      1.22083330	    -22.62522380	     -1.55336404	      1.67196466	     -0.68147831	      1.13535862	     -0.07367720	     28.67990775	     -4.66412350	    -10.06887428	     46.66280112	      0.81441952	     34.35072509	      5.26216158	     -7.49999987	     32.48009233	     -9.35636038	     -1.98229885	     49.86641222	      0.87033308	     26.40050653	      1.49196242	     -7.49999987	     -7.71468670	      2.35043986	      3.09312188	     87.26401473	    -14.28814261	     26.48398338	     54.49286276	     75.62013764	     87.44438067	    -14.69214973	     30.74185872	     75.75289984	     52.68828908
      1.22500000	    -22.11281180	     -1.93517566	      2.01906601	     -0.67509649	      1.14537132	     -0.07022713	     26.73568431	     -4.08216945	    -10.80033664	     44.25971613	      0.77247777	     33.18570478	      5.13208292	     -7.49999987	     31.44637250	     -9.69108209	     -1.49306532	     48.94531426	      0.85425689	     25.08572558	      1.45340020	     -7.49999987	     -7.93394074	      2.88697042	      2.98504281	     88.42160180	    -14.75998035	     28.01583557	     55.84153184	     75.90890750	     88.48498902	    -15.75067022	     31.69336147	     76.50527341	     52.77192635
      1.22916670	    -22.08272143	     -2.22960580	      2.11012382	     -0.67362374	      1.14516112	     -0.07040002	     25.83655231	     -3.81571040	    -11.62185950	     42.86912838	      0.74820744	     32.48663046	      5.73254602	     -7.49999987	     30.81646709	     -9.90024595	     -1.05480507	     47.74095198	      0.83323680	     24.11974504	      1.19692401	     -7.49999987	     -8.16860082	      3.35408606	      2.67288517	     89.82449004	    -15.13452914	     29.91162230	     57.67293949	     74.92976444	     90.50707977	    -17.79170147	     33.14447851	     78.01416734	     53.52018239
      1.23333330	    -21.29154972	     -2.59400677	      1.52882688	     -0.66171388	      1.15880052	     -0.07115882	     23.35332628	     -3.17483404	    -12.03033952	     39.94336931	      0.69714331	     30.31827975	      6.57790289	     -7.49999987	     28.30429174	    -10.43177995	     -1.36391718	     45.21095622	      0.78908004	     22.55848314	      1.42234420	     -7.49999987	     -8.86492067	      3.62999083	      2.95970509	     91.16123249	    -14.40449110	     31.66121573	     57.17305266	     75.38067313	     91.86269355	    -19.02006750	     34.17891944	     79.18187561	     53.52692326
      1.23750000	    -20.56852753	     -2.89433621	      1.07458070	     -0.65514301	      1.16168200	     -0.06740775	     21.19810391	     -2.47924247	    -12.32340541	     37.51184355	      0.65470518	     28.65258291	      6.88300141	     -7.49999987	     25.99045583	    -10.99409065	     -1.75384524	     42.95445800	      0.74969672	     21.21589195	      2.31078811	     -7.49999987	     -9.06487425	      3.74470094	      2.99915914	     91.27594184	    -14.23761845	     31.93457054	     58.27441341	     75.15025603	     92.69931267	    -19.90592551	     34.89583357	     79.68299183	     53.78266275
      1.24166670	    -19.70588281	     -3.17453284	      0.64029332	     -0.64938587	      1.16492577	     -0.06311666	     19.10182274	     -1.90060514	    -12.84429616	     35.69408551	      0.62297932	     26.85998562	      7.79664821	     -7.49999987	     24.02420513	    -11.64050374	     -1.76381187	     41.68095117	      0.72746983	     19.70663447	      2.51643563	     -7.49999987	     -9.31821347	      3.55054320	      3.07620990	     91.99806512	    -13.85932126	     32.75717945	     58.12772192	     75.13009873	     94.15723203	    -20.63596884	     36.52649774	     79.69993764	     54.10007838
      1.24583330	    -19.00011787	     -3.26631559	      0.42237160	     -0.64321264	      1.16795180	     -0.05931127	     17.50553276	     -1.58759300	    -13.38371538	     34.49490738	      0.60204971	     25.72487825	      9.09152234	     -7.49999987	     22.07692801	    -12.26852684	     -2.64231508	     40.21506810	      0.70188535	     18.43150990	      3.22176631	     -7.49999987	     -9.36289047	      3.01516957	      3.01971678	     93.29204083	    -13.47789284	     33.78140445	     57.05927470	     75.37557706	     96.37932378	    -21.26386613	     38.06464796	     79.68579973	     54.31607251
      1.25000000	    -18.38663074	     -3.26471053	      0.55980091	     -0.63244739	      1.16793620	     -0.05974171	     15.73928160	     -1.61767252	    -14.11670413	     33.68687651	      0.58794691	     25.08398556	      9.86972328	     -7.49999987	     20.74219858	    -12.60120551	     -3.13919300	     39.80970389	      0.69481041	     17.51698920	      3.48718950	     -7.49999987	     -9.12021261	      2.83853999	      3.04405771	     94.45361024	    -12.93950675	     34.67779348	     56.68240904	     75.91994454	     97.79317615	    -21.97421702	     39.07221101	     80.26922815	     54.48259430
      1.25416670	    -18.30719736	     -3.31290360	      0.56324020	     -0.62630352	      1.17426975	     -0.05652677	     14.45084585	     -1.26347960	    -14.47982283	     32.01543182	      0.55877470	     24.29219664	     10.59146187	     -7.49999987	     20.09772950	    -12.95799973	     -3.60585627	     39.52617903	      0.68986196	     16.66186087	      3.82060505	     -7.49999987	     -8.11155100	      2.53697149	      3.08993670	     94.37996304	    -13.06468087	     34.69627604	     56.80740924	     76.03981874	     97.95201614	    -22.35960695	     39.47521967	     80.77830221	     54.59313451
      1.25833330	    -17.57322693	     -3.31520031	      0.95705438	     -0.62101079	      1.17470885	     -0.06134906	     12.79984476	     -1.47726656	    -15.21605998	     31.18011726	      0.54419571	     23.66914083	     11.50632850	     -7.49999987	     19.26787203	    -12.97022731	     -3.90480326	     39.96877758	      0.69758677	     16.13671472	      4.41709763	     -7.49999987	     -8.37070924	      2.53638851	      3.14044754	     96.03457579	    -12.20965437	     34.49893322	     55.61740829	     77.34080220	     99.36994823	    -23.17571717	     40.38817723	     82.13410959	     55.70169997
      1.26250000	    -17.30314720	     -3.08100282	      0.67708027	     -0.61494488	      1.18114300	     -0.06608570	     12.37876720	     -2.30711871	    -15.67405051	     31.34044725	      0.54699399	     22.54744391	     12.77418070	     -7.49999987	     18.45126594	    -12.42178757	     -4.16943355	     40.20709027	      0.70174611	     15.23337030	      4.25100152	     -7.49999987	     -7.95430516	      2.45585915	      3.87620999	     96.98913832	    -12.82906352	     34.98875823	     55.52857763	     77.85163275	     99.72489507	    -23.84697444	     40.81098841	     83.31088355	     56.25344045
      1.26666670	    -17.14681754	     -2.80616131	      0.64062636	     -0.60945087	      1.19116424	     -0.06224197	     11.45682584	     -2.40675368	    -15.22944457	     29.83291504	      0.52068259	     20.84111109	     12.03948349	     -7.49999987	     17.31018400	    -11.99178172	     -4.69026081	     38.46056722	      0.67126353	     13.39667387	      4.75098045	     -7.49999987	     -7.61206756	      2.47817372	      4.26664674	     97.68907232	    -13.16205699	     35.84339986	     55.68347063	     77.90012642	     99.48216132	    -25.54123365	     41.24777129	     85.50453893	     57.49069768
      1.27083330	    -17.05523462	     -2.44014596	      0.40492409	     -0.59722700	      1.19975632	     -0.07180170	     10.70462941	     -2.69079207	    -14.12344188	     28.47903214	      0.49705288	     16.97756952	      9.97755469	     -7.49999987	     15.57282826	    -10.89161943	     -4.60047922	     35.97323788	      0.62785144	     11.05743832	      4.61578813	     -7.49999987	     -7.16932851	      2.65749868	      4.79337317	     98.31371055	    -13.90325940	     36.73588588	     56.75568045	     78.41035343	     98.25934432	    -27.08522429	     40.72343040	     88.34008700	     58.38186011
      1.27500000	    -16.79989879	     -2.46146655	      0.32351896	     -0.59142205	      1.20793012	     -0.06768304	     10.24239830	     -2.52983944	    -13.41563995	     27.87231120	      0.48646360	     14.10451371	      8.31580845	     -7.49999987	     13.59843817	    -10.48055727	     -4.38999963	     32.93656035	      0.57485142	      8.68918204	      4.76731386	     -7.49999987	     -6.97408030	      3.09175429	      5.01647332	     98.13439608	    -14.85437611	     37.55382360	     58.90002920	     78.94949159	     96.89207641	    -28.90649496	     38.92332423	     91.89567777	     59.42292444
